<svg xmlns="http://www.w3.org/2000/svg" width="569" height="245" viewBox="0 0 569 245"><g transform="translate(-1185 -105)"><text transform="translate(1500 158)" fill="#5c5c5c" font-size="56" font-family="HelveticaNeue, Helvetica Neue"><tspan x="0" y="0">Digital</tspan><tspan x="0" y="67">Corporate</tspan><tspan x="0" y="134">Banking</tspan><tspan fill="#ff5a10" font-size="38"><tspan x="0" y="184">platform</tspan></tspan></text><g transform="translate(-324 -533)"><g transform="translate(1510 641)" fill="#369" stroke="#707070" stroke-width="1"><rect width="294" height="239" stroke="none"/><rect x="0.5" y="0.5" width="293" height="238" fill="none"/></g><g transform="translate(1619 760)" fill="#0cf" stroke="#707070" stroke-width="1" opacity="0.21"><rect width="184" height="120" stroke="none"/><rect x="0.5" y="0.5" width="183" height="119" fill="none"/></g><g transform="translate(1509 641)" fill="#0cf" stroke="#707070" stroke-width="1" opacity="0.21"><rect width="134" height="94" stroke="none"/><rect x="0.5" y="0.5" width="133" height="93" fill="none"/></g><g transform="translate(1576 692)" fill="#0cf" stroke="#707070" stroke-width="1" opacity="0.21"><rect width="105" height="188" stroke="none"/><rect x="0.5" y="0.5" width="104" height="187" fill="none"/></g><g transform="translate(1656 641)" fill="#0cf" stroke="#707070" stroke-width="1" opacity="0.21"><rect width="78" height="239" stroke="none"/><rect x="0.5" y="0.5" width="77" height="238" fill="none"/></g><g transform="translate(1605 641)" fill="#0cf" stroke="#707070" stroke-width="1" opacity="0.21"><rect width="198" height="40" stroke="none"/><rect x="0.5" y="0.5" width="197" height="39" fill="none"/></g><text transform="translate(1520 831)" fill="#fff" font-size="169" font-family="SegoeUI, Segoe UI"><tspan x="0" y="0">360</tspan></text></g></g></svg>